<svg width="14" height="20" viewBox="0 0 14 20" fill="none" xmlns="http://www.w3.org/2000/svg">
<path d="M11.6771 19.9999C11.3782 20.0006 11.083 19.9535 10.813 19.8621C10.5429 19.7706 10.3051 19.6371 10.1168 19.4714L0.455058 10.9008C0.160841 10.6452 0 10.3246 0 9.9937C0 9.66284 0.160841 9.34224 0.455058 9.08665L10.4569 0.516026C10.7964 0.224316 11.2843 0.0408693 11.8133 0.00604443C12.3422 -0.0287805 12.8689 0.0878684 13.2774 0.330329C13.6859 0.57279 13.9428 0.921202 13.9915 1.29892C14.0403 1.67663 13.877 2.05271 13.5374 2.34442L4.5958 10.0008L13.2374 17.6573C13.482 17.8669 13.6374 18.1223 13.6851 18.393C13.7329 18.6638 13.671 18.9386 13.5069 19.1851C13.3428 19.4315 13.0832 19.6392 12.7589 19.7836C12.4346 19.928 12.0592 20.0031 11.6771 19.9999Z" fill="#2C507B"/>
</svg>
