<svg width="24" height="24" viewBox="0 0 24 24" fill="none" xmlns="http://www.w3.org/2000/svg">
<path d="M3.2475 23.7938L3.2775 23.7874C6.0225 23.2039 7.6995 22.434 8.4795 22.0112C9.62788 22.3394 10.8115 22.5048 12 22.5031C18.627 22.5031 24 17.4656 24 11.2515C24 5.03748 18.627 0 12 0C5.373 0 0 5.03748 0 11.2515C0 14.0805 1.1145 16.6684 2.955 18.6454C2.82624 19.9154 2.56253 21.1654 2.169 22.3713L2.1645 22.389C2.05266 22.7343 1.9306 23.0758 1.7985 23.4129C1.68 23.7118 1.9095 24.0462 2.208 23.9947C2.55549 23.9338 2.90204 23.8668 3.2475 23.7938V23.7938ZM4.4475 18.7981C4.46851 18.5628 4.44082 18.3254 4.36641 18.1029C4.292 17.8803 4.1727 17.6781 4.017 17.5106C2.427 15.8004 1.5 13.6112 1.5 11.2515C1.5 6.12084 6.006 1.60736 12 1.60736C17.994 1.60736 22.5 6.12084 22.5 11.2515C22.5 16.3839 17.994 20.8957 12 20.8957C10.9427 20.8974 9.88967 20.7504 8.868 20.4585C8.51097 20.356 8.13118 20.3984 7.8015 20.5775C7.221 20.8925 5.9415 21.4937 3.8505 22.0128C4.14221 20.9635 4.34208 19.8872 4.4475 18.7981V18.7981Z" fill="#2C507B"/>
</svg>
